<svg width="350" height="350" viewBox="0 0 350 350" fill="none" xmlns="http://www.w3.org/2000/svg">
<path d="M252 131.25V141.75H262.5H273.438C285.725 141.75 295.75 151.766 295.75 164.062V317.188C295.75 329.484 285.725 339.5 273.438 339.5H76.5625C64.275 339.5 54.25 329.484 54.25 317.188V164.062C54.25 151.766 64.275 141.75 76.5625 141.75H87.5H98V131.25V87.5C98 45.0415 132.542 10.5 175 10.5C217.458 10.5 252 45.0415 252 87.5V131.25ZM233.332 141.75H243.832V131.25V87.5C243.832 49.5294 212.971 18.6676 175 18.6676C137.029 18.6676 106.168 49.5294 106.168 87.5V131.25V141.75H116.668H233.332Z" stroke="#F73D00" stroke-width="21"/>
<g clip-path="url(#clip0)">
<path d="M226.422 190.641C213.311 171.88 187.209 166.384 168.444 178.213L135.366 199.244C126.344 204.86 120.089 214.061 118.285 224.457C116.721 233.18 118.045 242.141 122.255 249.908C119.368 254.21 117.443 258.99 116.601 264.008C114.677 274.643 117.203 285.636 123.457 294.359C136.689 313.119 162.67 318.616 181.435 306.786L214.513 285.875C223.535 280.259 229.79 271.058 231.594 260.663C233.158 251.94 231.835 242.978 227.625 235.211C230.511 230.909 232.436 226.13 233.278 221.111C235.323 210.357 232.797 199.363 226.422 190.641Z" fill="#FF3E00"/>
<path d="M165.197 296.152C154.491 298.9 143.305 294.718 137.05 285.756C133.201 280.498 131.757 273.926 132.84 267.474C133.081 266.398 133.321 265.442 133.562 264.367L134.163 262.455L135.847 263.65C139.817 266.518 144.147 268.669 148.838 270.103L150.041 270.461L149.92 271.656C149.8 273.329 150.281 275.121 151.244 276.555C153.168 279.303 156.536 280.618 159.784 279.781C160.506 279.542 161.227 279.303 161.829 278.945L194.787 258.034C196.471 256.958 197.554 255.405 197.914 253.493C198.275 251.581 197.794 249.55 196.712 247.997C194.787 245.248 191.419 244.053 188.171 244.89C187.45 245.129 186.728 245.368 186.126 245.726L173.496 253.732C171.452 255.047 169.166 256.003 166.76 256.6C156.055 259.348 144.868 255.166 138.614 246.204C134.885 240.947 133.321 234.375 134.524 227.922C135.607 221.708 139.456 216.092 144.869 212.747L177.947 191.836C179.992 190.521 182.277 189.565 184.683 188.848C195.388 186.1 206.575 190.282 212.83 199.244C216.679 204.502 218.122 211.074 217.04 217.526C216.799 218.602 216.559 219.558 216.198 220.633L215.596 222.545L213.912 221.35C209.943 218.482 205.613 216.331 200.922 214.897L199.719 214.539L199.839 213.344C199.959 211.671 199.478 209.879 198.516 208.445C196.591 205.697 193.223 204.502 189.976 205.338C189.254 205.577 188.532 205.816 187.931 206.175L154.972 227.086C153.288 228.161 152.206 229.714 151.845 231.626C151.484 233.538 151.965 235.57 153.048 237.123C154.972 239.871 158.34 241.066 161.588 240.23C162.31 239.991 163.032 239.752 163.633 239.393L176.263 231.387C178.308 230.073 180.593 229.117 182.999 228.4C193.704 225.652 204.891 229.834 211.146 238.796C214.995 244.053 216.438 250.625 215.356 257.078C214.273 263.292 210.424 268.908 205.011 272.253L171.933 293.164C169.888 294.479 167.602 295.435 165.197 296.152Z" fill="white"/>
</g>
<defs>
<clipPath id="clip0">
<rect width="118" height="141" fill="white" transform="translate(116 172)"/>
</clipPath>
</defs>
</svg>
